Coordinates
version=1
nRows=29
nColumns=24
inDegrees=yes

Units are S.I. units (second, meters, Newtons, ...)
Angles are in degrees.

endheader
time	pelvis_tilt	pelvis_list	pelvis_rotation	pelvis_tx	pelvis_ty	pelvis_tz	hip_flexion_r	hip_adduction_r	hip_rotation_r	knee_angle_r	ankle_angle_r	subtalar_angle_r	mtp_angle_r	hip_flexion_l	hip_adduction_l	hip_rotation_l	knee_angle_l	ankle_angle_l	subtalar_angle_l	mtp_angle_l	lumbar_extension	lumbar_bending	lumbar_rotation
      5.17000000	      5.81040697	      2.64827288	      0.41767330	      0.64035090	      0.91032908	     -0.27064304	     13.26532376	     -0.57934407	     -2.65457673	    -69.89919634	      6.40763819	     -7.97030789	      0.00000000	     -1.49733243	      7.58287974	      2.30120312	     -7.97934455	     10.26185286	     -4.91710064	      0.00000000	    -22.53717597	     -3.62646353	     -2.67459587
      5.18000000	      5.64912445	      2.44597134	      0.75170805	      0.65132512	      0.91104065	     -0.27143044	     14.83757478	     -0.47525444	     -3.07989254	    -69.16364341	      7.41878688	     -7.91788366	      0.00000000	     -2.56944518	      7.39541271	      3.17547017	     -7.09969371	     10.15749102	     -5.59578378	      0.00000000	    -22.58784789	     -3.23681055	     -2.49540175
      5.19000000	      5.49000217	      2.26216238	      1.13464794	      0.66221505	      0.91156017	     -0.27216425	     16.28851002	     -0.40244450	     -3.53458964	    -68.07822425	      8.29847758	     -7.94838350	      0.00000000	     -3.49918775	      7.18092638	      3.54252855	     -6.46362875	     10.44267654	     -5.51334102	      0.00000000	    -22.66210626	     -2.87506754	     -2.38213592
      5.20000000	      5.33608271	      2.15593945	      1.48399150	      0.67306315	      0.91181677	     -0.27289384	     17.64356563	     -0.43603318	     -3.94179959	    -66.71786131	      9.20218845	     -7.70316789	      0.00000000	     -4.58984342	      7.06992416	      4.71170510	     -5.54904657	     10.08070144	     -6.68888284	      0.00000000	    -22.75413802	     -2.59178856	     -2.22443219
      5.21000000	      5.17762739	      2.05932562	      1.90710732	      0.68384375	      0.91192809	     -0.27355467	     18.85116077	     -0.47894730	     -4.36619482	    -64.97777677	      9.83504996	     -7.68845525	      0.00000000	     -5.45346377	      6.91328090	      5.06790838	     -5.02143261	     10.40001011	     -6.56357792	      0.00000000	    -22.85980507	     -2.32356749	     -2.16129758
      5.22000000	      5.06687957	      2.01154178	      2.32124803	      0.69462332	      0.91188491	     -0.27417707	     19.87281659	     -0.58368689	     -4.75287063	    -62.91436016	     10.46626772	     -7.47154407	      0.00000000	     -6.49616090	      6.80356698	      6.07380018	     -4.27165405	     10.19582065	     -7.43528679	      0.00000000	    -23.02202024	     -2.11656068	     -2.11854069
      5.23000000	      4.89237003	      2.01044475	      2.82710365	      0.70533346	      0.91163770	     -0.27480892	     20.79939863	     -0.76465696	     -5.17262046	    -60.48012567	     10.81888350	     -7.55074131	      0.00000000	     -7.27129993	      6.71095625	      6.46059391	     -3.87690409	     10.49793648	     -7.28710621	      0.00000000	    -23.13106207	     -1.94800840	     -2.18307966
      5.24000000	      4.84015363	      2.03864818	      3.32876762	      0.71606910	      0.91142055	     -0.27537828	     21.41121431	     -0.96063720	     -5.53602425	    -57.65910167	     11.03585610	     -7.64914458	      0.00000000	     -8.22551439	      6.62524151	      7.00638541	     -3.40241015	     10.63971210	     -7.35598893	      0.00000000	    -23.38901673	     -1.80709975	     -2.30170644
      5.25000000	      4.63442187	      2.10698401	      3.88805241	      0.72679881	      0.91087187	     -0.27596476	     22.01613058	     -1.23242060	     -5.91773915	    -54.48151633	     11.09063056	     -7.88779361	      0.00000000	     -8.93500912	      6.57596845	      7.45345318	     -3.08156577	     10.90915187	     -7.31908296	      0.00000000	    -23.46202831	     -1.71074365	     -2.52953536
      5.26000000	      4.58203490	      2.18935933	      4.39548473	      0.73761773	      0.91043384	     -0.27640869	     22.23535130	     -1.44529644	     -6.14371110	    -50.86477512	     10.78679954	     -8.47580470	      0.00000000	     -9.87283123	      6.51440226	      8.01164657	     -2.66017933	     10.98197857	     -7.46753999	      0.00000000	    -23.71475779	     -1.64438639	     -2.75708030
      5.27000000	      4.44539292	      2.32298081	      4.94066954	      0.74853325	      0.90977539	     -0.27688852	     22.33930316	     -1.73505582	     -6.36558819	    -46.88195485	     10.27289721	     -9.12592708	      0.00000000	    -10.69193395	      6.49875308	      8.56210516	     -2.31974498	     11.08314991	     -7.60357947	      0.00000000	    -23.84683708	     -1.62021974	     -3.10534201
      5.28000000	      4.31270685	      2.50175494	      5.46861448	      0.75962146	      0.90900701	     -0.27732069	     22.22156109	     -2.06346179	     -6.54582634	    -42.52794379	      9.47139128	     -9.91217469	      0.00000000	    -11.53200360	      6.51646911	      9.06717085	     -1.97682068	     11.14512638	     -7.74073664	      0.00000000	    -23.95034081	     -1.64961484	     -3.50869803
      5.29000000	      4.17662356	      2.73509060	      5.98252935	      0.77088763	      0.90811766	     -0.27768739	     21.89465192	     -2.43151626	     -6.66925764	    -37.83867184	      8.39042385	    -10.72256612	      0.00000000	    -12.37110600	      6.57606334	      9.58666253	     -1.67418486	     11.15461987	     -7.87998462	      0.00000000	    -24.02980454	     -1.75679098	     -3.98136181
      5.30000000	      4.02704934	      3.04991287	      6.48131186	      0.78240251	      0.90705811	     -0.27802712	     21.39852401	     -2.88988623	     -6.79586147	    -32.90724133	      7.16386100	    -11.35999880	      0.00000000	    -13.22090251	      6.70527160	     10.10537508	     -1.38054730	     11.16525164	     -7.99309498	      0.00000000	    -24.04879888	     -1.95521112	     -4.52784460
      5.31000000	      3.85843270	      3.44624861	      6.96410894	      0.79418098	      0.90581336	     -0.27832286	     20.78536896	     -3.44862896	     -7.01505742	    -27.83817531	      5.97102700	    -11.60986155	      0.00000000	    -14.07003822	      6.90257531	     10.62022038	     -1.11449034	     11.17205915	     -8.04151660	      0.00000000	    -24.00640029	     -2.26116407	     -5.14560334
      5.32000000	      3.63626269	      3.92921396	      7.44914753	      0.80620352	      0.90433807	     -0.27860955	     20.15937242	     -4.12923056	     -7.45863255	    -22.78118220	      5.06538003	    -11.16745567	      0.00000000	    -14.85662431	      7.17885727	     11.10920651	     -0.92843396	     11.29813194	     -7.94410502	      0.00000000	    -23.86408514	     -2.67253292	     -5.83533957
      5.33000000	      3.42259430	      4.45021535	      7.90653254	      0.81847971	      0.90273913	     -0.27880397	     19.49455396	     -4.82261162	     -8.07448961	    -17.82544357	      4.36922404	    -10.20364891	      0.00000000	    -15.66106824	      7.47134997	     11.56694122	     -0.77685387	     11.34197211	     -7.78264849	      0.00000000	    -23.70026972	     -3.14347866	     -6.52364476
      5.34000000	      3.24956006	      5.00232178	      8.33472970	      0.83096751	      0.90107219	     -0.27893659	     18.86810989	     -5.54016953	     -9.18810189	    -13.22937027	      4.36899633	     -8.02350884	      0.00000000	    -16.52019024	      7.76978298	     12.07166130	     -0.65044566	     11.25402052	     -7.71471556	      0.00000000	    -23.56180892	     -3.65640738	     -7.20335474
      5.35000000	      3.01746619	      5.51956611	      8.74750569	      0.84364108	      0.89924136	     -0.27897432	     18.40490366	     -6.15480441	    -10.44407391	     -9.10135350	      4.72980429	     -5.24853060	      0.00000000	    -17.28142260	      8.02122917	     12.61190481	     -0.61867798	     11.29526177	     -7.53534924	      0.00000000	    -23.31760659	     -4.15451290	     -7.84426167
      5.36000000	      2.85432630	      5.98581492	      9.07714806	      0.85645125	      0.89743399	     -0.27881886	     17.96378284	     -6.58744953	    -11.29780549	     -5.50085244	      5.16291503	     -2.57392320	      0.00000000	    -18.06118458	      8.20842024	     13.03219490	     -0.68297194	     11.32506238	     -7.26311508	      0.00000000	    -23.13848297	     -4.61933130	     -8.37374323
      5.37000000	      2.71382731	      6.38708958	      9.34459699	      0.86937747	      0.89561500	     -0.27856184	     17.56813455	     -6.87318451	    -11.36949488	     -2.47123472	      5.40971320	     -0.69511543	      0.00000000	    -18.78682586	      8.33291918	     13.40698824	     -0.88566226	     11.40773364	     -6.91639135	      0.00000000	    -22.95802172	     -5.02160247	     -8.80529847
      5.38000000	      2.63055490	      6.73119119	      9.52901291	      0.88236412	      0.89385906	     -0.27822894	     17.21526313	     -7.07800538	    -10.71056589	     -0.14135600	      5.49553443	      0.26016417	      0.00000000	    -19.48882597	      8.41072680	     13.79408593	     -1.22883727	     11.46096487	     -6.61237412	      0.00000000	    -22.83603282	     -5.35942172	     -9.11196944
      5.39000000	      2.70465353	      6.95019399	      9.56998743	      0.89544599	      0.89233706	     -0.27775234	     16.90192688	     -7.13571928	     -9.93606719	      1.30236730	      5.61844512	      0.88054105	      0.00000000	    -20.24489679	      8.37947507	     14.00295800	     -1.72523294	     11.52151035	     -6.24979059	      0.00000000	    -22.86457016	     -5.54518087	     -9.24147688
      5.40000000	      2.85463817	      7.08108175	      9.47611769	      0.90863113	      0.89097494	     -0.27712175	     16.68794951	     -7.08843616	     -8.92603297	      1.89395897	      5.54038404	      0.74533159	      0.00000000	    -20.86972044	      8.31289216	     13.59124359	     -2.56769315	     12.02445190	     -5.04272220	      0.00000000	    -22.93906529	     -5.64783471	     -9.21390048
      5.41000000	      3.06483296	      7.09348539	      9.21594316	      0.92186259	      0.88978086	     -0.27625459	     16.74175805	     -6.88934550	     -8.42017949	      1.42806987	      5.77490158	      0.95733343	      0.00000000	    -21.36132862	      8.18929348	     12.77805841	     -3.70296796	     12.46890187	     -3.64759459	      0.00000000	    -23.06432818	     -5.64825553	     -9.00656245
      5.42000000	      3.37965050	      6.96780695	      8.83916248	      0.93528491	      0.88876874	     -0.27522290	     16.85902969	     -6.51230367	     -8.13155302	      0.21363632	      5.91875451	      0.93770897	      0.00000000	    -21.83723920	      7.95507321	     11.84848841	     -5.03107075	     12.91844578	     -2.22268710	      0.00000000	    -23.24282642	     -5.50031626	     -8.62879655
      5.43000000	      3.75272760	      6.78827616	      8.39015113	      0.94887967	      0.88790648	     -0.27405234	     17.00765905	     -6.06535573	     -7.91315960	     -1.55164216	      5.89079501	      0.66189778	      0.00000000	    -22.18986398	      7.69296288	     10.59413747	     -6.68253419	     13.35610088	     -0.57649334	      0.00000000	    -23.45133093	     -5.31010841	     -8.21494998
      5.44000000	      4.19790652	      6.58493111	      7.89898909	      0.96264821	      0.88722484	     -0.27279149	     17.07159718	     -5.57963061	     -7.52104923	     -3.60049230	      5.63780677	      0.01497107	      0.00000000	    -22.48203103	      7.42010830	      9.30738241	     -8.58517061	     13.60103686	      0.91695513	      0.00000000	    -23.70640544	     -5.09947038	     -7.78271618
      5.45000000	      4.51662570	      6.34508617	      7.45497779	      0.97658822	      0.88656043	     -0.27151642	     17.21860006	     -5.07388312	     -6.92037721	     -5.77020065	      5.04203178	     -1.10272501	      0.00000000	    -22.43833972	      7.11449478	      7.87916983	    -10.84318897	     13.64243267	      2.54713773	      0.00000000	    -23.75632982	     -4.86780134	     -7.37710400
